<svg width="94" height="93" viewBox="0 0 94 93" fill="none" xmlns="http://www.w3.org/2000/svg">
<path d="M8.51875 84.2812C6.15243 84.2812 4.14106 83.4618 2.48464 81.823C0.828212 80.1842 0 78.1943 0 75.8531V36.5219C0 34.1807 0.828212 32.1908 2.48464 30.552C4.14106 28.9132 6.15243 28.0938 8.51875 28.0938H48.2729C50.6392 28.0938 52.6506 28.9132 54.307 30.552C55.9635 32.1908 56.7917 34.1807 56.7917 36.5219V75.8531C56.7917 78.1943 55.9635 80.1842 54.307 81.823C52.6506 83.4618 50.6392 84.2812 48.2729 84.2812H8.51875ZM8.51875 78.6625H48.2729C49.0775 78.6625 49.7514 78.3928 50.2947 77.8534C50.8399 77.3159 51.1125 76.6491 51.1125 75.8531V36.5219C51.1125 35.7259 50.8399 35.0582 50.2947 34.5188C49.7514 33.9813 49.0775 33.7125 48.2729 33.7125H8.51875C7.7142 33.7125 7.03933 33.9813 6.49413 34.5188C5.95082 35.0582 5.67917 35.7259 5.67917 36.5219V75.8531C5.67917 76.6491 5.95082 77.3159 6.49413 77.8534C7.03933 78.3928 7.7142 78.6625 8.51875 78.6625ZM11.3583 73.0437L22.7167 61.8062L27.8279 66.7929L34.075 58.9969L45.4333 73.0437H11.3583ZM17.0375 50.5687C15.4757 50.5687 14.1392 50.0181 13.028 48.9168C11.9149 47.8174 11.3583 46.4952 11.3583 44.95C11.3583 43.4048 11.9149 42.0826 13.028 40.9832C14.1392 39.8819 15.4757 39.3312 17.0375 39.3312C18.5993 39.3312 19.9367 39.8819 21.0498 40.9832C22.1611 42.0826 22.7167 43.4048 22.7167 44.95C22.7167 46.4952 22.1611 47.8174 21.0498 48.9168C19.9367 50.0181 18.5993 50.5687 17.0375 50.5687Z" fill="black"/>
</svg>
