<svg width="14" height="16" viewBox="0 0 14 16" fill="none" xmlns="http://www.w3.org/2000/svg">
<path d="M4.66667 7.19902L3.11111 7.19902L3.11111 8.79902L4.66667 8.79902L4.66667 7.19902ZM7.77778 7.19902L6.22222 7.19902L6.22222 8.79902L7.77778 8.79902L7.77778 7.19902ZM10.8889 7.19902L9.33333 7.19902L9.33333 8.79902L10.8889 8.79902L10.8889 7.19902ZM12.4444 1.59902L11.6667 1.59902L11.6667 -0.000976563L10.1111 -0.000976563L10.1111 1.59902L3.88889 1.59902L3.88889 -0.000976563L2.33333 -0.000976563L2.33333 1.59902L1.55556 1.59902C0.692222 1.59902 0.00777777 2.31902 0.00777777 3.19902L1.45374e-10 14.399C1.54258e-10 15.279 0.692222 15.999 1.55556 15.999L12.4444 15.999C13.3 15.999 14 15.279 14 14.399L14 3.19902C14 2.31902 13.3 1.59902 12.4444 1.59902ZM12.4444 14.399L1.55556 14.399L1.55556 5.59902L12.4444 5.59902L12.4444 14.399Z" fill="black"/>
</svg>
