<svg width="12" height="24" viewBox="0 0 12 24" fill="none" xmlns="http://www.w3.org/2000/svg">
<path d="M6.45972 10.5333C3.78389 9.74667 2.92338 8.93333 2.92338 7.66667C2.92338 6.21333 4.11395 5.2 6.10609 5.2C8.20432 5.2 8.98232 6.33333 9.05304 8L11.6582 8C11.5756 5.70667 10.3379 3.6 7.87426 2.92L7.87426 0L4.33792 0L4.33792 2.88C2.05108 3.44 0.212181 5.12 0.212181 7.69333C0.212181 10.7733 2.46365 12.3067 5.75246 13.2C8.69941 14 9.2888 15.1733 9.2888 16.4133C9.2888 17.3333 8.7112 18.8 6.10609 18.8C3.6778 18.8 2.72299 17.5733 2.59332 16L1.61527e-10 16C0.141454 18.92 2.07466 20.56 4.33792 21.1067L4.33792 24L7.87426 24L7.87426 21.1333C10.1729 20.64 12 19.1333 12 16.4C12 12.6133 9.13556 11.32 6.45972 10.5333Z" fill="url(#paint0_linear_2320_7789)"/>
<defs>
<linearGradient id="paint0_linear_2320_7789" x1="1.21145e-10" y1="12" x2="12" y2="12" gradientUnits="userSpaceOnUse">
<stop stop-color="#FFE8F9"/>
<stop offset="1" stop-color="#FDF7FC"/>
</linearGradient>
</defs>
</svg>
