<svg width="20" height="18" viewBox="0 0 20 18" fill="none" xmlns="http://www.w3.org/2000/svg">
<path d="M8 8.20117C6.9 8.20117 5.95833 7.8095 5.175 7.02617C4.39167 6.24284 4 5.30117 4 4.20117C4 3.10117 4.39167 2.15951 5.175 1.37617C5.95833 0.592839 6.9 0.201172 8 0.201172C9.1 0.201172 10.0417 0.592839 10.825 1.37617C11.6083 2.15951 12 3.10117 12 4.20117C12 5.30117 11.6083 6.24284 10.825 7.02617C10.0417 7.8095 9.1 8.20117 8 8.20117ZM1 16.2012C0.716667 16.2012 0.479333 16.1052 0.288 15.9132C0.0960001 15.7218 1.54292e-10 15.4845 1.51432e-10 15.2012L1.3326e-10 13.4012C1.27707e-10 12.8512 0.141667 12.3345 0.425 11.8512C0.708333 11.3678 1.1 11.0012 1.6 10.7512C2.45 10.3178 3.40833 9.95117 4.475 9.65117C5.54167 9.35117 6.71667 9.20117 8 9.20117L8.35 9.20117C8.45 9.20117 8.55 9.21784 8.65 9.25117C8.51667 9.55117 8.404 9.86384 8.312 10.1892C8.22067 10.5138 8.15 10.8512 8.1 11.2012C8.01667 11.8012 7.99167 12.3052 8.025 12.7132C8.05833 13.1218 8.15 13.6178 8.3 14.2012C8.4 14.5512 8.53333 14.8972 8.7 15.2392C8.86667 15.5805 9.05 15.9012 9.25 16.2012L1 16.2012ZM15 14.2012C15.55 14.2012 16.021 14.0055 16.413 13.6142C16.8043 13.2222 17 12.7512 17 12.2012C17 11.6512 16.8043 11.1802 16.413 10.7882C16.021 10.3968 15.55 10.2012 15 10.2012C14.45 10.2012 13.9793 10.3968 13.588 10.7882C13.196 11.1802 13 11.6512 13 12.2012C13 12.7512 13.196 13.2222 13.588 13.6142C13.9793 14.0055 14.45 14.2012 15 14.2012ZM13.7 15.7012C13.5 15.6178 13.3123 15.5305 13.137 15.4392C12.9623 15.3472 12.7833 15.2345 12.6 15.1012L11.525 15.4262C11.4083 15.4595 11.3 15.4552 11.2 15.4132C11.1 15.3718 11.0167 15.3012 10.95 15.2012L10.35 14.2012C10.2833 14.1012 10.2627 13.9928 10.288 13.8762C10.3127 13.7595 10.375 13.6595 10.475 13.5762L11.3 12.8512C11.2667 12.6178 11.25 12.4012 11.25 12.2012C11.25 12.0012 11.2667 11.7845 11.3 11.5512L10.475 10.8262C10.375 10.7428 10.3127 10.6428 10.288 10.5262C10.2627 10.4095 10.2833 10.3012 10.35 10.2012L10.95 9.20117C11.0167 9.10117 11.1 9.03017 11.2 8.98817C11.3 8.94684 11.4083 8.94284 11.525 8.97617L12.6 9.30117C12.7833 9.16784 12.9623 9.05517 13.137 8.96317C13.3123 8.87184 13.5 8.7845 13.7 8.70117L13.925 7.60117C13.9583 7.4845 14.0167 7.38884 14.1 7.31417C14.1833 7.23884 14.2833 7.20117 14.4 7.20117L15.6 7.20117C15.7167 7.20117 15.8167 7.23884 15.9 7.31417C15.9833 7.38884 16.0417 7.4845 16.075 7.60117L16.3 8.70117C16.5 8.7845 16.6877 8.87617 16.863 8.97617C17.0377 9.07617 17.2167 9.20117 17.4 9.35117L18.45 8.97617C18.5667 8.92617 18.6793 8.92617 18.788 8.97617C18.896 9.02617 18.9833 9.10117 19.05 9.20117L19.65 10.2512C19.7167 10.3512 19.7417 10.4595 19.725 10.5762C19.7083 10.6928 19.65 10.7928 19.55 10.8762L18.7 11.6012C18.7333 11.8012 18.75 12.0095 18.75 12.2262C18.75 12.4428 18.7333 12.6512 18.7 12.8512L19.525 13.5762C19.625 13.6595 19.6873 13.7595 19.712 13.8762C19.7373 13.9928 19.7167 14.1012 19.65 14.2012L19.05 15.2012C18.9833 15.3012 18.9 15.3718 18.8 15.4132C18.7 15.4552 18.5917 15.4595 18.475 15.4262L17.4 15.1012C17.2167 15.2345 17.0377 15.3472 16.863 15.4392C16.6877 15.5305 16.5 15.6178 16.3 15.7012L16.075 16.8012C16.0417 16.9178 15.9833 17.0135 15.9 17.0882C15.8167 17.1635 15.7167 17.2012 15.6 17.2012L14.4 17.2012C14.2833 17.2012 14.1833 17.1635 14.1 17.0882C14.0167 17.0135 13.9583 16.9178 13.925 16.8012L13.7 15.7012Z" fill="#242424"/>
</svg>
